<svg width="36" height="361" viewBox="0 0 36 361" fill="none" xmlns="http://www.w3.org/2000/svg">
<path d="M6.9751 0.277344V11H5.62012V1.96924L2.88818 2.96533V1.74219L6.7627 0.277344H6.9751ZM22.9126 5.68994V9.59375C22.7808 9.78906 22.5708 10.0088 22.2827 10.2529C21.9946 10.4922 21.5967 10.7021 21.0889 10.8828C20.5859 11.0586 19.9365 11.1465 19.1406 11.1465C18.4912 11.1465 17.8931 11.0342 17.3462 10.8096C16.8042 10.5801 16.333 10.248 15.9326 9.81348C15.5371 9.37402 15.2295 8.8418 15.0098 8.2168C14.7949 7.58691 14.6875 6.87402 14.6875 6.07812V5.25049C14.6875 4.45459 14.7803 3.74414 14.9658 3.11914C15.1562 2.49414 15.4346 1.96436 15.8008 1.52979C16.167 1.09033 16.6162 0.758301 17.1484 0.533691C17.6807 0.304199 18.291 0.189453 18.9795 0.189453C19.7949 0.189453 20.4761 0.331055 21.0229 0.614258C21.5747 0.892578 22.0044 1.27832 22.312 1.77148C22.6245 2.26465 22.8247 2.82617 22.9126 3.45605H21.499C21.4355 3.07031 21.3086 2.71875 21.1182 2.40137C20.9326 2.08398 20.6665 1.83008 20.3198 1.63965C19.9731 1.44434 19.5264 1.34668 18.9795 1.34668C18.4863 1.34668 18.0591 1.43701 17.6978 1.61768C17.3364 1.79834 17.0386 2.05713 16.8042 2.39404C16.5698 2.73096 16.394 3.13867 16.2769 3.61719C16.1646 4.0957 16.1084 4.63525 16.1084 5.23584V6.07812C16.1084 6.69336 16.1792 7.24268 16.3208 7.72607C16.4673 8.20947 16.6748 8.62207 16.9434 8.96387C17.2119 9.30078 17.5317 9.55713 17.9028 9.73291C18.2788 9.90869 18.6938 9.99658 19.1479 9.99658C19.6509 9.99658 20.0586 9.95508 20.3711 9.87207C20.6836 9.78418 20.9277 9.68164 21.1035 9.56445C21.2793 9.44238 21.4136 9.32764 21.5063 9.22021V6.83252H19.0381V5.68994H22.9126ZM29.0576 6.01221H26.355L26.3403 4.87695H28.7939C29.1992 4.87695 29.5532 4.80859 29.856 4.67188C30.1587 4.53516 30.3931 4.33984 30.5591 4.08594C30.73 3.82715 30.8154 3.51953 30.8154 3.16309C30.8154 2.77246 30.7397 2.45508 30.5884 2.21094C30.4419 1.96191 30.2148 1.78125 29.9072 1.66895C29.6045 1.55176 29.2188 1.49316 28.75 1.49316H26.6699V11H25.2563V0.335938H28.75C29.2969 0.335938 29.7852 0.39209 30.2148 0.504395C30.6445 0.611816 31.0083 0.782715 31.3062 1.01709C31.6089 1.24658 31.8384 1.53955 31.9946 1.896C32.1509 2.25244 32.229 2.67969 32.229 3.17773C32.229 3.61719 32.1167 4.01514 31.8921 4.37158C31.6675 4.72314 31.355 5.01123 30.9546 5.23584C30.5591 5.46045 30.0952 5.60449 29.563 5.66797L29.0576 6.01221ZM28.9917 11H25.7983L26.5967 9.8501H28.9917C29.4409 9.8501 29.8218 9.77197 30.1343 9.61572C30.4517 9.45947 30.6934 9.23975 30.8594 8.95654C31.0254 8.66846 31.1084 8.3291 31.1084 7.93848C31.1084 7.54297 31.0376 7.20117 30.896 6.91309C30.7544 6.625 30.5322 6.40283 30.2295 6.24658C29.9268 6.09033 29.5361 6.01221 29.0576 6.01221H27.0435L27.0581 4.87695H29.812L30.1123 5.28711C30.625 5.33105 31.0596 5.47754 31.416 5.72656C31.7725 5.9707 32.0435 6.2832 32.229 6.66406C32.4194 7.04492 32.5146 7.46484 32.5146 7.92383C32.5146 8.58789 32.3682 9.14941 32.0752 9.6084C31.7871 10.0625 31.3794 10.4092 30.8521 10.6484C30.3247 10.8828 29.7046 11 28.9917 11ZM18.6206 50.2773V61H17.2656V51.9692L14.5337 52.9653V51.7422L18.4082 50.2773H18.6206ZM21.1548 110.887V112H14.1748V111.026L17.6685 107.137C18.0981 106.658 18.4302 106.253 18.6646 105.921C18.9038 105.584 19.0698 105.284 19.1626 105.02C19.2603 104.751 19.3091 104.478 19.3091 104.2C19.3091 103.848 19.2358 103.531 19.0894 103.248C18.9478 102.959 18.7378 102.73 18.4595 102.559C18.1812 102.388 17.8442 102.303 17.4487 102.303C16.9751 102.303 16.5796 102.396 16.2622 102.581C15.9497 102.762 15.7153 103.016 15.5591 103.343C15.4028 103.67 15.3247 104.046 15.3247 104.471H13.9697C13.9697 103.87 14.1016 103.321 14.3652 102.823C14.6289 102.325 15.0195 101.929 15.5371 101.636C16.0547 101.338 16.6919 101.189 17.4487 101.189C18.1226 101.189 18.6987 101.309 19.1772 101.548C19.6558 101.783 20.022 102.115 20.2759 102.544C20.5347 102.969 20.6641 103.467 20.6641 104.039C20.6641 104.351 20.6104 104.668 20.5029 104.991C20.4004 105.308 20.2563 105.625 20.0708 105.943C19.8901 106.26 19.6777 106.573 19.4336 106.88C19.1943 107.188 18.938 107.491 18.6646 107.789L15.8081 110.887H21.1548ZM4.67529 202.277V213H3.32031V203.969L0.588379 204.965V203.742L4.46289 202.277H4.67529ZM18.5034 205.075V213H17.1484V205.075H18.5034ZM18.042 208.715V209.829C17.7686 209.931 17.4902 210.024 17.207 210.107C16.9287 210.185 16.6333 210.249 16.3208 210.297C16.0132 210.341 15.6787 210.363 15.3174 210.363C14.6924 210.363 14.1504 210.256 13.6914 210.041C13.2324 209.821 12.8784 209.492 12.6294 209.052C12.3804 208.608 12.2559 208.049 12.2559 207.375V205.061H13.6108V207.375C13.6108 207.814 13.6768 208.171 13.8086 208.444C13.9404 208.718 14.1333 208.92 14.3872 209.052C14.6411 209.179 14.9512 209.243 15.3174 209.243C15.6689 209.243 15.9985 209.221 16.3062 209.177C16.6187 209.128 16.9165 209.064 17.1997 208.986C17.4878 208.908 17.7686 208.818 18.042 208.715ZM25.3589 211.645V207.565C25.3589 207.253 25.2954 206.982 25.1685 206.752C25.0464 206.518 24.8608 206.337 24.6118 206.21C24.3628 206.083 24.0552 206.02 23.689 206.02C23.3472 206.02 23.0469 206.079 22.7881 206.196C22.5342 206.313 22.334 206.467 22.1875 206.657C22.0459 206.848 21.9751 207.053 21.9751 207.272H20.6201C20.6201 206.989 20.6934 206.708 20.8398 206.43C20.9863 206.152 21.1963 205.9 21.4697 205.676C21.748 205.446 22.0801 205.266 22.4658 205.134C22.8564 204.997 23.291 204.929 23.7695 204.929C24.3457 204.929 24.8535 205.026 25.293 205.222C25.7373 205.417 26.084 205.712 26.333 206.108C26.5869 206.499 26.7139 206.989 26.7139 207.58V211.271C26.7139 211.535 26.7358 211.816 26.7798 212.114C26.8286 212.412 26.8994 212.668 26.9922 212.883V213H25.5786C25.5103 212.844 25.4565 212.636 25.4175 212.377C25.3784 212.114 25.3589 211.87 25.3589 211.645ZM25.5933 208.195L25.6079 209.147H24.2383C23.8525 209.147 23.5083 209.179 23.2056 209.243C22.9028 209.301 22.6489 209.392 22.4438 209.514C22.2388 209.636 22.0825 209.79 21.9751 209.975C21.8677 210.156 21.814 210.368 21.814 210.612C21.814 210.861 21.8701 211.088 21.9824 211.293C22.0947 211.499 22.2632 211.662 22.4878 211.784C22.7173 211.901 22.998 211.96 23.3301 211.96C23.7451 211.96 24.1113 211.872 24.4287 211.696C24.7461 211.521 24.9976 211.306 25.1831 211.052C25.3735 210.798 25.4761 210.551 25.4907 210.312L26.0693 210.964C26.0352 211.169 25.9424 211.396 25.791 211.645C25.6396 211.894 25.437 212.133 25.1831 212.363C24.9341 212.587 24.6362 212.775 24.2896 212.927C23.9478 213.073 23.562 213.146 23.1323 213.146C22.5952 213.146 22.124 213.042 21.7188 212.832C21.3184 212.622 21.0059 212.341 20.7812 211.989C20.5615 211.633 20.4517 211.235 20.4517 210.795C20.4517 210.371 20.5347 209.997 20.7007 209.675C20.8667 209.348 21.106 209.077 21.4185 208.862C21.731 208.642 22.1069 208.476 22.5464 208.364C22.9858 208.251 23.4766 208.195 24.0186 208.195H25.5933ZM32.0166 212.033C32.3389 212.033 32.6367 211.967 32.9102 211.835C33.1836 211.704 33.4082 211.523 33.584 211.293C33.7598 211.059 33.8599 210.793 33.8843 210.495H35.1733C35.1489 210.964 34.9902 211.401 34.6973 211.806C34.4092 212.207 34.0308 212.531 33.562 212.78C33.0933 213.024 32.5781 213.146 32.0166 213.146C31.4209 213.146 30.9009 213.042 30.4565 212.832C30.0171 212.622 29.6509 212.333 29.3579 211.967C29.0698 211.601 28.8525 211.181 28.7061 210.708C28.5645 210.229 28.4937 209.724 28.4937 209.191V208.884C28.4937 208.352 28.5645 207.849 28.7061 207.375C28.8525 206.896 29.0698 206.474 29.3579 206.108C29.6509 205.742 30.0171 205.454 30.4565 205.244C30.9009 205.034 31.4209 204.929 32.0166 204.929C32.6367 204.929 33.1787 205.056 33.6426 205.31C34.1064 205.559 34.4702 205.9 34.7339 206.335C35.0024 206.765 35.1489 207.253 35.1733 207.8H33.8843C33.8599 207.473 33.7671 207.177 33.606 206.914C33.4497 206.65 33.2349 206.44 32.9614 206.284C32.6929 206.123 32.3779 206.042 32.0166 206.042C31.6016 206.042 31.2524 206.125 30.9692 206.291C30.6909 206.452 30.4688 206.672 30.3027 206.95C30.1416 207.224 30.0244 207.529 29.9512 207.866C29.8828 208.198 29.8486 208.537 29.8486 208.884V209.191C29.8486 209.538 29.8828 209.88 29.9512 210.217C30.0195 210.554 30.1343 210.859 30.2954 211.132C30.4614 211.406 30.6836 211.625 30.9619 211.792C31.2451 211.953 31.5967 212.033 32.0166 212.033Z" fill="#405063"/>
<path d="M22.4805 157.119V158.232H12.6953V157.119H22.4805ZM22.4805 258.119V259.232H12.6953V258.119H22.4805ZM22.4805 308.119V309.232H12.6953V308.119H22.4805ZM22.4805 359.119V360.232H12.6953V359.119H22.4805Z" fill="#C3D0DF"/>
</svg>
