<svg width="310" height="117" viewBox="0 0 310 117" fill="none" xmlns="http://www.w3.org/2000/svg">
<path d="M88 27.846V0.0849609H41V27.846H58.8403V29.9125C53.8086 30.1334 50.3318 30.599 50.3318 31.1416C50.3318 31.8965 57.0703 32.5097 65.3846 32.5097C73.6991 32.5097 80.4377 31.8964 80.4377 31.1416C80.4377 30.5383 76.1319 30.0279 70.1606 29.8467V27.8461H88V27.846ZM44.0864 25.4669V2.22649H84.9122V25.4669H44.0864ZM64.5001 3.27347L69.5297 7.92488L68.5936 8.78986L64.5001 5.00391L60.4071 8.78986L59.4706 7.92488L64.5001 3.27347ZM68.5934 18.8656L69.5296 19.7313L64.4999 24.3817L59.4704 19.7299L60.4069 18.8648L64.4999 22.6513L68.5934 18.8656Z" fill="#4992E6"/>
<path d="M21.0918 58.031H20.251V48.7957H14.6182V58.031H13.7773V48.0779H21.0918V58.031ZM26.3281 58.1677C25.6992 58.1677 25.1296 58.0128 24.6191 57.7029C24.1133 57.393 23.7191 56.9623 23.4365 56.4109C23.154 55.8549 23.0127 55.2328 23.0127 54.5447V54.2507C23.0127 53.5398 23.1494 52.8995 23.4229 52.3298C23.7008 51.7602 24.0859 51.3136 24.5781 50.99C25.0703 50.6619 25.6035 50.4978 26.1777 50.4978C27.0755 50.4978 27.7865 50.8054 28.3105 51.4207C28.8392 52.0313 29.1035 52.8676 29.1035 53.9294V54.3875H23.8262V54.5447C23.8262 55.3832 24.0654 56.0828 24.5439 56.6433C25.027 57.1993 25.6331 57.4773 26.3623 57.4773C26.7998 57.4773 27.1849 57.3975 27.5176 57.238C27.8548 57.0785 28.1602 56.8233 28.4336 56.4724L28.9463 56.8621C28.3447 57.7325 27.472 58.1677 26.3281 58.1677ZM26.1777 51.1951C25.5625 51.1951 25.043 51.4207 24.6191 51.8718C24.1999 52.323 23.9447 52.9291 23.8535 53.6902H28.29V53.6013C28.2673 52.8904 28.0645 52.3116 27.6816 51.865C27.2988 51.4184 26.7975 51.1951 26.1777 51.1951ZM36.6436 54.408C36.6436 55.561 36.3883 56.477 35.8779 57.156C35.3675 57.8305 34.6839 58.1677 33.8271 58.1677C32.8154 58.1677 32.0407 57.8123 31.5029 57.1013V60.8748H30.6895V50.6345H31.4482L31.4893 51.6804C32.0225 50.892 32.7949 50.4978 33.8066 50.4978C34.6908 50.4978 35.3835 50.8328 35.8848 51.5027C36.3906 52.1726 36.6436 53.1023 36.6436 54.2917V54.408ZM35.8232 54.2644C35.8232 53.321 35.6296 52.5759 35.2422 52.0291C34.8548 51.4822 34.3148 51.2087 33.6221 51.2087C33.1208 51.2087 32.6901 51.3295 32.3301 51.571C31.9701 51.8126 31.6943 52.1635 31.5029 52.6238V56.1716C31.6989 56.5955 31.9792 56.919 32.3438 57.1423C32.7083 57.3656 33.139 57.4773 33.6357 57.4773C34.3239 57.4773 34.8594 57.2039 35.2422 56.657C35.6296 56.1056 35.8232 55.308 35.8232 54.2644ZM38.5508 58.031V50.6345H41.2646C42.2035 50.6345 42.9235 50.8031 43.4248 51.1404C43.9261 51.4731 44.1768 51.963 44.1768 52.6101C44.1768 52.9792 44.0651 53.3097 43.8418 53.6013C43.6185 53.8884 43.2926 54.0981 42.8643 54.2302C43.3473 54.3214 43.7347 54.5287 44.0264 54.8523C44.3226 55.1759 44.4707 55.5518 44.4707 55.9802C44.4707 56.6319 44.2292 57.1378 43.7461 57.4978C43.2676 57.8533 42.5885 58.031 41.709 58.031H38.5508ZM39.3643 54.6267V57.3474H41.7363C42.3516 57.3474 42.8255 57.2289 43.1582 56.9919C43.4909 56.755 43.6572 56.4132 43.6572 55.9666C43.6572 55.5564 43.4909 55.2306 43.1582 54.989C42.8255 54.7475 42.3516 54.6267 41.7363 54.6267H39.3643ZM39.3643 53.9431H41.4355C42.7207 53.9249 43.3633 53.4874 43.3633 52.6306C43.3633 52.1794 43.1855 51.8513 42.8301 51.6462C42.4792 51.4366 41.9574 51.3318 41.2646 51.3318H39.3643V53.9431ZM47.1982 53.321H49.3311C49.8779 53.321 50.3564 53.4213 50.7666 53.6218C51.1813 53.8178 51.4935 54.0912 51.7031 54.4421C51.9173 54.7931 52.0244 55.2009 52.0244 55.6658C52.0244 56.3813 51.7783 56.9555 51.2861 57.3884C50.7985 57.8168 50.1377 58.031 49.3037 58.031H46.3848V50.6345H47.1982V53.321ZM47.1982 54.0183V57.3406H49.3174C49.9053 57.3406 50.3656 57.1925 50.6982 56.8962C51.0355 56.6 51.2041 56.1944 51.2041 55.6794C51.2041 55.1873 51.04 54.7908 50.7119 54.49C50.3883 54.1847 49.944 54.0274 49.3789 54.0183H47.1982ZM54.5332 58.031H53.7129V50.6345H54.5332V58.031ZM61.6699 50.6345H62.4902V58.031H61.6699V51.9539L57.6777 58.031H56.8643V50.6345H57.6777V56.7185L61.6699 50.6345ZM61.6289 47.9685C61.6289 48.4926 61.4489 48.9164 61.0889 49.24C60.7334 49.5636 60.2549 49.7253 59.6533 49.7253C59.0609 49.7253 58.5824 49.5658 58.2178 49.2468C57.8577 48.9233 57.6777 48.4972 57.6777 47.9685H58.375C58.375 48.3468 58.4867 48.6361 58.71 48.8367C58.9378 49.0372 59.2523 49.1375 59.6533 49.1375C60.0544 49.1375 60.3665 49.0326 60.5898 48.823C60.8177 48.6134 60.9316 48.3285 60.9316 47.9685H61.6289ZM71.0693 51.1267C72.0081 51.1267 72.7692 51.4343 73.3525 52.0496C73.9359 52.6602 74.2275 53.4714 74.2275 54.4832V54.6609C74.2275 55.3308 74.0931 55.9347 73.8242 56.4724C73.5599 57.0056 73.1771 57.4226 72.6758 57.7234C72.179 58.0196 71.6071 58.1677 70.96 58.1677C69.9847 58.1677 69.194 57.8442 68.5879 57.197C67.9863 56.5453 67.6855 55.6772 67.6855 54.5925V53.9363C67.6855 52.405 67.9772 51.1814 68.5605 50.2654C69.1439 49.3494 69.9733 48.8025 71.0488 48.6248C71.7279 48.5154 72.2041 48.3673 72.4775 48.1804C72.7555 47.9936 72.8945 47.7384 72.8945 47.4148H73.5986C73.5986 47.7976 73.5189 48.1143 73.3594 48.365C73.1999 48.6156 72.9606 48.8184 72.6416 48.9734C72.3226 49.1238 71.835 49.2514 71.1787 49.3562C70.4268 49.4747 69.8206 49.796 69.3604 50.3201C68.9046 50.8396 68.6084 51.5369 68.4717 52.4119C68.7633 52.0291 69.1279 51.7192 69.5654 51.4822C70.0075 51.2452 70.5088 51.1267 71.0693 51.1267ZM68.5059 54.49V54.6609C68.5059 55.4949 68.7314 56.1739 69.1826 56.698C69.6338 57.2175 70.2262 57.4773 70.96 57.4773C71.6982 57.4773 72.2907 57.2153 72.7373 56.6912C73.1839 56.1625 73.4072 55.4698 73.4072 54.613V54.4353C73.4072 53.6651 73.1794 53.0362 72.7236 52.5486C72.2725 52.061 71.68 51.8171 70.9463 51.8171C70.2126 51.8171 69.6224 52.0655 69.1758 52.5623C68.7292 53.0544 68.5059 53.697 68.5059 54.49ZM81.4873 50.6345V58.031H80.667V51.3386H77.6387L77.5088 54.1072C77.4541 55.1326 77.3516 55.9164 77.2012 56.4587C77.0508 56.9965 76.8275 57.393 76.5312 57.6482C76.235 57.9034 75.8408 58.031 75.3486 58.031H75.0342V57.3064L75.2871 57.2927C75.7565 57.2836 76.0938 57.0557 76.2988 56.6091C76.5039 56.1625 76.6383 55.365 76.7021 54.2166L76.8525 50.6345H81.4873ZM83.2373 54.2234C83.2373 53.5125 83.374 52.8722 83.6475 52.3025C83.9255 51.7328 84.3151 51.2908 84.8164 50.9763C85.3223 50.6573 85.8942 50.4978 86.5322 50.4978C87.5166 50.4978 88.3141 50.8442 88.9248 51.5369C89.5355 52.225 89.8408 53.1388 89.8408 54.2781V54.449C89.8408 55.1645 89.7018 55.8093 89.4238 56.3835C89.1504 56.9532 88.763 57.393 88.2617 57.7029C87.7604 58.0128 87.1885 58.1677 86.5459 58.1677C85.5661 58.1677 84.7686 57.8236 84.1533 57.1355C83.5426 56.4428 83.2373 55.5268 83.2373 54.3875V54.2234ZM84.0576 54.449C84.0576 55.3331 84.2855 56.06 84.7412 56.6296C85.2015 57.1947 85.8031 57.4773 86.5459 57.4773C87.2842 57.4773 87.8812 57.1947 88.3369 56.6296C88.7972 56.06 89.0273 55.3103 89.0273 54.3806V54.2234C89.0273 53.6583 88.9225 53.141 88.7129 52.6716C88.5033 52.2022 88.2093 51.8399 87.8311 51.5847C87.4528 51.325 87.0199 51.1951 86.5322 51.1951C85.8031 51.1951 85.2083 51.4822 84.748 52.0564C84.2878 52.6261 84.0576 53.3735 84.0576 54.2986V54.449ZM93.5459 54.6404H92.4111V58.031H91.584V50.6345H92.4111V53.9158H93.5322L96.2461 50.6345H97.2783L94.2432 54.2234L97.6133 58.031H96.5332L93.5459 54.6404ZM107.881 58.031H107.061V54.6404H103.075V58.031H102.255V50.6345H103.075V53.95H107.061V50.6345H107.881V58.031ZM114.744 58.031C114.662 57.7986 114.61 57.4545 114.587 56.9988C114.3 57.3725 113.933 57.6619 113.486 57.8669C113.044 58.0675 112.575 58.1677 112.078 58.1677C111.367 58.1677 110.791 57.9695 110.349 57.573C109.911 57.1765 109.692 56.6752 109.692 56.0691C109.692 55.349 109.991 54.7794 110.588 54.3601C111.189 53.9408 112.026 53.7312 113.097 53.7312H114.58V52.8904C114.58 52.3617 114.416 51.947 114.088 51.6462C113.764 51.3409 113.29 51.1882 112.666 51.1882C112.096 51.1882 111.625 51.3341 111.251 51.6257C110.877 51.9174 110.69 52.2683 110.69 52.6785L109.87 52.6716C109.87 52.0837 110.144 51.5756 110.69 51.1472C111.237 50.7143 111.91 50.4978 112.707 50.4978C113.532 50.4978 114.181 50.7052 114.655 51.1199C115.134 51.53 115.38 52.1042 115.394 52.8425V56.3425C115.394 57.058 115.469 57.5935 115.619 57.949V58.031H114.744ZM112.174 57.4431C112.721 57.4431 113.208 57.311 113.637 57.0466C114.07 56.7823 114.384 56.4291 114.58 55.9871V54.3601H113.117C112.301 54.3692 111.663 54.5196 111.203 54.8113C110.743 55.0984 110.513 55.4949 110.513 56.0007C110.513 56.4154 110.665 56.7595 110.971 57.033C111.281 57.3064 111.682 57.4431 112.174 57.4431ZM4.69922 74.031V66.6345H7.41309C8.35189 66.6345 9.07194 66.8031 9.57324 67.1404C10.0745 67.4731 10.3252 67.963 10.3252 68.6101C10.3252 68.9792 10.2135 69.3097 9.99023 69.6013C9.76693 69.8884 9.44108 70.0981 9.0127 70.2302C9.49577 70.3214 9.88314 70.5287 10.1748 70.8523C10.471 71.1759 10.6191 71.5518 10.6191 71.9802C10.6191 72.6319 10.3776 73.1378 9.89453 73.4978C9.41602 73.8533 8.73698 74.031 7.85742 74.031H4.69922ZM5.5127 70.6267V73.3474H7.88477C8.5 73.3474 8.97396 73.2289 9.30664 72.9919C9.63932 72.755 9.80566 72.4132 9.80566 71.9666C9.80566 71.5564 9.63932 71.2306 9.30664 70.989C8.97396 70.7475 8.5 70.6267 7.88477 70.6267H5.5127ZM5.5127 69.9431H7.58398C8.86914 69.9249 9.51172 69.4874 9.51172 68.6306C9.51172 68.1794 9.33398 67.8513 8.97852 67.6462C8.6276 67.4366 8.10579 67.3318 7.41309 67.3318H5.5127V69.9431ZM15.1787 73.4773C15.7484 73.4773 16.2246 73.3178 16.6074 72.9988C16.9948 72.6752 17.2044 72.2582 17.2363 71.7478H18.0225C17.9997 72.199 17.8584 72.6114 17.5986 72.9851C17.3389 73.3542 16.9925 73.6436 16.5596 73.8533C16.1312 74.0629 15.6709 74.1677 15.1787 74.1677C14.208 74.1677 13.4378 73.8305 12.8682 73.156C12.3031 72.4815 12.0205 71.5746 12.0205 70.4353V70.1892C12.0205 69.46 12.1481 68.8152 12.4033 68.2546C12.6585 67.6941 13.0231 67.2611 13.4971 66.9558C13.9756 66.6505 14.5339 66.4978 15.1719 66.4978C15.9831 66.4978 16.6507 66.7393 17.1748 67.2224C17.7035 67.7055 17.986 68.3412 18.0225 69.1296H17.2363C17.1999 68.5509 16.9902 68.0837 16.6074 67.7283C16.2292 67.3728 15.7507 67.1951 15.1719 67.1951C14.4336 67.1951 13.8594 67.4617 13.4492 67.9949C13.0436 68.5281 12.8408 69.2755 12.8408 70.2371V70.4763C12.8408 71.4197 13.0436 72.1557 13.4492 72.6843C13.8594 73.213 14.4359 73.4773 15.1787 73.4773ZM20.5654 70.0046H22.6777C22.7005 69.3302 22.8555 68.724 23.1426 68.1863C23.4297 67.644 23.8193 67.227 24.3115 66.9353C24.8037 66.6436 25.3551 66.4978 25.9658 66.4978C26.9456 66.4978 27.7409 66.8442 28.3516 67.5369C28.9668 68.2296 29.2744 69.1456 29.2744 70.2849V70.449C29.2744 71.1599 29.1354 71.8025 28.8574 72.3767C28.5794 72.9509 28.1898 73.393 27.6885 73.7029C27.1872 74.0128 26.6175 74.1677 25.9795 74.1677C25.0361 74.1677 24.2614 73.8487 23.6553 73.2107C23.0492 72.5681 22.7233 71.7319 22.6777 70.7019H20.5654V74.031H19.752V66.6345H20.5654V70.0046ZM23.4844 70.449C23.4844 71.3331 23.7122 72.06 24.168 72.6296C24.6283 73.1947 25.2321 73.4773 25.9795 73.4773C26.7132 73.4773 27.3079 73.1947 27.7637 72.6296C28.224 72.06 28.4541 71.3103 28.4541 70.3806V70.2234C28.4541 69.3484 28.224 68.6261 27.7637 68.0564C27.3034 67.4822 26.7041 67.1951 25.9658 67.1951C25.2321 67.1951 24.6351 67.4822 24.1748 68.0564C23.7145 68.6261 23.4844 69.3735 23.4844 70.2986V70.449ZM34.5449 74.031V66.6345H37.2588C38.1976 66.6345 38.9176 66.8031 39.4189 67.1404C39.9202 67.4731 40.1709 67.963 40.1709 68.6101C40.1709 68.9792 40.0592 69.3097 39.8359 69.6013C39.6126 69.8884 39.2868 70.0981 38.8584 70.2302C39.3415 70.3214 39.7288 70.5287 40.0205 70.8523C40.3167 71.1759 40.4648 71.5518 40.4648 71.9802C40.4648 72.6319 40.2233 73.1378 39.7402 73.4978C39.2617 73.8533 38.5827 74.031 37.7031 74.031H34.5449ZM35.3584 70.6267V73.3474H37.7305C38.3457 73.3474 38.8197 73.2289 39.1523 72.9919C39.485 72.755 39.6514 72.4132 39.6514 71.9666C39.6514 71.5564 39.485 71.2306 39.1523 70.989C38.8197 70.7475 38.3457 70.6267 37.7305 70.6267H35.3584ZM35.3584 69.9431H37.4297C38.7148 69.9249 39.3574 69.4874 39.3574 68.6306C39.3574 68.1794 39.1797 67.8513 38.8242 67.6462C38.4733 67.4366 37.9515 67.3318 37.2588 67.3318H35.3584V69.9431ZM43.1924 69.321H45.3252C45.8721 69.321 46.3506 69.4213 46.7607 69.6218C47.1755 69.8178 47.4876 70.0912 47.6973 70.4421C47.9115 70.7931 48.0186 71.2009 48.0186 71.6658C48.0186 72.3813 47.7725 72.9555 47.2803 73.3884C46.7926 73.8168 46.1318 74.031 45.2979 74.031H42.3789V66.6345H43.1924V69.321ZM43.1924 70.0183V73.3406H45.3115C45.8994 73.3406 46.3597 73.1925 46.6924 72.8962C47.0296 72.6 47.1982 72.1944 47.1982 71.6794C47.1982 71.1873 47.0342 70.7908 46.7061 70.49C46.3825 70.1847 45.9382 70.0274 45.373 70.0183H43.1924ZM50.5273 74.031H49.707V66.6345H50.5273V74.031ZM55.5381 73.4773C56.1077 73.4773 56.584 73.3178 56.9668 72.9988C57.3542 72.6752 57.5638 72.2582 57.5957 71.7478H58.3818C58.359 72.199 58.2178 72.6114 57.958 72.9851C57.6982 73.3542 57.3519 73.6436 56.9189 73.8533C56.4906 74.0629 56.0303 74.1677 55.5381 74.1677C54.5674 74.1677 53.7972 73.8305 53.2275 73.156C52.6624 72.4815 52.3799 71.5746 52.3799 70.4353V70.1892C52.3799 69.46 52.5075 68.8152 52.7627 68.2546C53.0179 67.6941 53.3825 67.2611 53.8564 66.9558C54.335 66.6505 54.8932 66.4978 55.5312 66.4978C56.3424 66.4978 57.0101 66.7393 57.5342 67.2224C58.0628 67.7055 58.3454 68.3412 58.3818 69.1296H57.5957C57.5592 68.5509 57.3496 68.0837 56.9668 67.7283C56.5885 67.3728 56.11 67.1951 55.5312 67.1951C54.793 67.1951 54.2188 67.4617 53.8086 67.9949C53.403 68.5281 53.2002 69.2755 53.2002 70.2371V70.4763C53.2002 71.4197 53.403 72.1557 53.8086 72.6843C54.2188 73.213 54.7952 73.4773 55.5381 73.4773ZM59.5713 70.2234C59.5713 69.5125 59.708 68.8722 59.9814 68.3025C60.2594 67.7328 60.6491 67.2908 61.1504 66.9763C61.6562 66.6573 62.2282 66.4978 62.8662 66.4978C63.8506 66.4978 64.6481 66.8442 65.2588 67.5369C65.8695 68.225 66.1748 69.1388 66.1748 70.2781V70.449C66.1748 71.1645 66.0358 71.8093 65.7578 72.3835C65.4844 72.9532 65.097 73.393 64.5957 73.7029C64.0944 74.0128 63.5225 74.1677 62.8799 74.1677C61.9001 74.1677 61.1025 73.8236 60.4873 73.1355C59.8766 72.4428 59.5713 71.5268 59.5713 70.3875V70.2234ZM60.3916 70.449C60.3916 71.3331 60.6195 72.06 61.0752 72.6296C61.5355 73.1947 62.137 73.4773 62.8799 73.4773C63.6182 73.4773 64.2152 73.1947 64.6709 72.6296C65.1312 72.06 65.3613 71.3103 65.3613 70.3806V70.2234C65.3613 69.6583 65.2565 69.141 65.0469 68.6716C64.8372 68.2022 64.5433 67.8399 64.165 67.5847C63.7868 67.325 63.3538 67.1951 62.8662 67.1951C62.137 67.1951 61.5423 67.4822 61.082 68.0564C60.6217 68.6261 60.3916 69.3735 60.3916 70.2986V70.449ZM73.0312 67.3318H70.3379V74.031H69.5176V67.3318H66.9268V66.6345H73.0312V67.3318ZM76.8047 72.8552L78.9648 66.6345H79.8467L76.6885 75.2888L76.5244 75.6716C76.1188 76.5694 75.4922 77.0183 74.6445 77.0183C74.4486 77.0183 74.2389 76.9864 74.0156 76.9226L74.0088 76.2458L74.4326 76.2869C74.8337 76.2869 75.1572 76.1866 75.4033 75.9861C75.654 75.7901 75.8659 75.4506 76.0391 74.9675L76.4014 73.9695L73.6123 66.6345H74.5078L76.8047 72.8552ZM86.9902 67.1951C86.4251 67.1951 85.9535 67.3591 85.5752 67.6873C85.1969 68.0108 85.0078 68.4301 85.0078 68.9451H84.2148C84.2148 68.4985 84.3379 68.0883 84.584 67.7146C84.8346 67.3409 85.1764 67.0447 85.6094 66.8259C86.0423 66.6072 86.5026 66.4978 86.9902 66.4978C87.8971 66.4978 88.6377 66.8168 89.2119 67.4548C89.7861 68.0883 90.096 68.92 90.1416 69.95L90.1484 70.4763C90.1484 71.1873 90.0163 71.8276 89.752 72.3972C89.4876 72.9623 89.1185 73.3998 88.6445 73.7097C88.1706 74.0151 87.6214 74.1677 86.9971 74.1677C86.1859 74.1677 85.5182 73.9239 84.9941 73.4363C84.4746 72.9441 84.2148 72.3083 84.2148 71.5291H85.0078C85.0078 72.1169 85.1947 72.5886 85.5684 72.9441C85.9466 73.2996 86.4229 73.4773 86.9971 73.4773C87.6807 73.4773 88.2298 73.2221 88.6445 72.7117C89.0638 72.2013 89.2894 71.5108 89.3213 70.6404H85.9785V69.95H89.3213C89.2803 69.116 89.0524 68.4483 88.6377 67.947C88.2275 67.4457 87.6784 67.1951 86.9902 67.1951ZM94.0244 70.6404H92.8896V74.031H92.0625V66.6345H92.8896V69.9158H94.0107L96.7246 66.6345H97.7568L94.7217 70.2234L98.0918 74.031H97.0117L94.0244 70.6404ZM105.222 70.408C105.222 71.561 104.966 72.477 104.456 73.156C103.946 73.8305 103.262 74.1677 102.405 74.1677C101.394 74.1677 100.619 73.8123 100.081 73.1013V76.8748H99.2676V66.6345H100.026L100.067 67.6804C100.601 66.892 101.373 66.4978 102.385 66.4978C103.269 66.4978 103.962 66.8328 104.463 67.5027C104.969 68.1726 105.222 69.1023 105.222 70.2917V70.408ZM104.401 70.2644C104.401 69.321 104.208 68.5759 103.82 68.0291C103.433 67.4822 102.893 67.2087 102.2 67.2087C101.699 67.2087 101.268 67.3295 100.908 67.571C100.548 67.8126 100.272 68.1635 100.081 68.6238V72.1716C100.277 72.5955 100.557 72.919 100.922 73.1423C101.286 73.3656 101.717 73.4773 102.214 73.4773C102.902 73.4773 103.438 73.2039 103.82 72.657C104.208 72.1056 104.401 71.308 104.401 70.2644ZM111.709 74.031C111.627 73.7986 111.575 73.4545 111.552 72.9988C111.265 73.3725 110.898 73.6619 110.451 73.8669C110.009 74.0675 109.54 74.1677 109.043 74.1677C108.332 74.1677 107.756 73.9695 107.313 73.573C106.876 73.1765 106.657 72.6752 106.657 72.0691C106.657 71.349 106.956 70.7794 107.553 70.3601C108.154 69.9408 108.991 69.7312 110.062 69.7312H111.545V68.8904C111.545 68.3617 111.381 67.947 111.053 67.6462C110.729 67.3409 110.255 67.1882 109.631 67.1882C109.061 67.1882 108.59 67.3341 108.216 67.6257C107.842 67.9174 107.655 68.2683 107.655 68.6785L106.835 68.6716C106.835 68.0837 107.108 67.5756 107.655 67.1472C108.202 66.7143 108.874 66.4978 109.672 66.4978C110.497 66.4978 111.146 66.7052 111.62 67.1199C112.099 67.53 112.345 68.1042 112.358 68.8425V72.3425C112.358 73.058 112.434 73.5935 112.584 73.949V74.031H111.709ZM109.139 73.4431C109.686 73.4431 110.173 73.311 110.602 73.0466C111.035 72.7823 111.349 72.4291 111.545 71.9871V70.3601H110.082C109.266 70.3692 108.628 70.5196 108.168 70.8113C107.708 71.0984 107.478 71.4949 107.478 72.0007C107.478 72.4154 107.63 72.7595 107.936 73.033C108.245 73.3064 108.646 73.4431 109.139 73.4431ZM120.227 74.031H119.406V70.6404H115.421V74.031H114.601V66.6345H115.421V69.95H119.406V66.6345H120.227V74.031ZM127.09 74.031C127.008 73.7986 126.955 73.4545 126.933 72.9988C126.646 73.3725 126.279 73.6619 125.832 73.8669C125.39 74.0675 124.921 74.1677 124.424 74.1677C123.713 74.1677 123.136 73.9695 122.694 73.573C122.257 73.1765 122.038 72.6752 122.038 72.0691C122.038 71.349 122.337 70.7794 122.934 70.3601C123.535 69.9408 124.371 69.7312 125.442 69.7312H126.926V68.8904C126.926 68.3617 126.762 67.947 126.434 67.6462C126.11 67.3409 125.636 67.1882 125.012 67.1882C124.442 67.1882 123.97 67.3341 123.597 67.6257C123.223 67.9174 123.036 68.2683 123.036 68.6785L122.216 68.6716C122.216 68.0837 122.489 67.5756 123.036 67.1472C123.583 66.7143 124.255 66.4978 125.053 66.4978C125.878 66.4978 126.527 66.7052 127.001 67.1199C127.479 67.53 127.726 68.1042 127.739 68.8425V72.3425C127.739 73.058 127.814 73.5935 127.965 73.949V74.031H127.09ZM124.52 73.4431C125.066 73.4431 125.554 73.311 125.982 73.0466C126.415 72.7823 126.73 72.4291 126.926 71.9871V70.3601H125.463C124.647 70.3692 124.009 70.5196 123.549 70.8113C123.089 71.0984 122.858 71.4949 122.858 72.0007C122.858 72.4154 123.011 72.7595 123.316 73.033C123.626 73.3064 124.027 73.4431 124.52 73.4431Z" fill="#405063"/>
<path d="M214.191 57.4565C214.191 58.3726 214.032 59.1769 213.713 59.8696C213.398 60.5623 212.947 61.0955 212.359 61.4692C211.771 61.8429 211.092 62.0298 210.322 62.0298C209.16 62.0298 208.221 61.6151 207.506 60.7856C206.79 59.9517 206.433 58.8283 206.433 57.4155V56.3901C206.433 55.4832 206.592 54.6812 206.911 53.9839C207.235 53.2821 207.69 52.7443 208.278 52.3706C208.866 51.9924 209.543 51.8032 210.309 51.8032C211.074 51.8032 211.749 51.9878 212.332 52.3569C212.92 52.7261 213.373 53.2479 213.692 53.9224C214.011 54.5968 214.178 55.3784 214.191 56.2671V57.4565ZM213.351 56.3765C213.351 55.1779 213.079 54.2391 212.537 53.5601C211.995 52.881 211.252 52.5415 210.309 52.5415C209.383 52.5415 208.645 52.8833 208.094 53.5669C207.547 54.2459 207.273 55.1961 207.273 56.4175V57.4565C207.273 58.6369 207.547 59.5734 208.094 60.2661C208.641 60.9543 209.383 61.2983 210.322 61.2983C211.275 61.2983 212.018 60.9588 212.551 60.2798C213.084 59.5962 213.351 58.646 213.351 57.4292V56.3765ZM221.431 55.1938H218.737V61.8931H217.917V55.1938H215.326V54.4966H221.431V55.1938ZM227.111 56.4517C227.111 56.005 226.945 55.661 226.612 55.4194C226.28 55.1779 225.822 55.0571 225.238 55.0571C224.71 55.0571 224.256 55.1938 223.878 55.4673C223.504 55.7362 223.317 56.078 223.317 56.4927H222.504C222.504 55.8774 222.766 55.3693 223.29 54.9683C223.819 54.5672 224.468 54.3667 225.238 54.3667C226.086 54.3667 226.747 54.549 227.221 54.9136C227.695 55.2782 227.932 55.7954 227.932 56.4653C227.932 56.8208 227.822 57.1421 227.604 57.4292C227.385 57.7163 227.066 57.9396 226.646 58.0991C227.594 58.3589 228.068 58.9468 228.068 59.8628C228.068 60.5282 227.811 61.0545 227.296 61.4419C226.781 61.8293 226.097 62.0229 225.245 62.0229C224.42 62.0229 223.737 61.8156 223.194 61.4009C222.652 60.9862 222.381 60.4438 222.381 59.7739H223.201C223.201 60.2205 223.397 60.5942 223.789 60.895C224.186 61.1912 224.671 61.3394 225.245 61.3394C225.869 61.3394 226.357 61.2095 226.708 60.9497C227.063 60.6854 227.241 60.3276 227.241 59.8765C227.241 59.3797 227.079 59.022 226.756 58.8032C226.432 58.5845 225.938 58.4751 225.272 58.4751H224.145V57.7642H225.409C226.544 57.7368 227.111 57.2993 227.111 56.4517ZM230.775 57.1831H232.908C233.455 57.1831 233.934 57.2834 234.344 57.4839C234.758 57.6799 235.071 57.9533 235.28 58.3042C235.494 58.6551 235.602 59.063 235.602 59.5278C235.602 60.2433 235.355 60.8175 234.863 61.2505C234.376 61.6789 233.715 61.8931 232.881 61.8931H229.962V54.4966H230.775V57.1831ZM230.775 57.8804V61.2026H232.895C233.482 61.2026 233.943 61.0545 234.275 60.7583C234.613 60.4621 234.781 60.0565 234.781 59.5415C234.781 59.0493 234.617 58.6528 234.289 58.3521C233.965 58.0467 233.521 57.8895 232.956 57.8804H230.775ZM238.11 61.8931H237.29V54.4966H238.11V61.8931ZM240.476 61.8931V54.4966H243.189C244.128 54.4966 244.848 54.6652 245.35 55.0024C245.851 55.3351 246.102 55.825 246.102 56.4722C246.102 56.8413 245.99 57.1717 245.767 57.4634C245.543 57.7505 245.217 57.9601 244.789 58.0923C245.272 58.1834 245.66 58.3908 245.951 58.7144C246.247 59.0379 246.396 59.4139 246.396 59.8423C246.396 60.494 246.154 60.9998 245.671 61.3599C245.192 61.7153 244.513 61.8931 243.634 61.8931H240.476ZM241.289 58.4888V61.2095H243.661C244.276 61.2095 244.75 61.091 245.083 60.854C245.416 60.617 245.582 60.2752 245.582 59.8286C245.582 59.4185 245.416 59.0926 245.083 58.8511C244.75 58.6095 244.276 58.4888 243.661 58.4888H241.289ZM241.289 57.8052H243.36C244.646 57.7869 245.288 57.3494 245.288 56.4927C245.288 56.0415 245.11 55.7134 244.755 55.5083C244.404 55.2987 243.882 55.1938 243.189 55.1938H241.289V57.8052ZM253.484 61.8931H252.664V58.7827C251.99 59.0288 251.345 59.1519 250.729 59.1519C249.75 59.1519 249.039 58.9377 248.597 58.5093C248.155 58.0763 247.924 57.4041 247.906 56.4927V54.4966H248.72V56.4517C248.729 57.158 248.884 57.6685 249.185 57.9829C249.49 58.2928 250.005 58.4478 250.729 58.4478C251.39 58.4295 252.035 58.311 252.664 58.0923V54.4966H253.484V61.8931ZM260.532 54.4966H261.353V61.8931H260.532V55.8159L256.54 61.8931H255.727V54.4966H256.54V60.5806L260.532 54.4966ZM263.636 61.8931V54.4966H266.35C267.288 54.4966 268.008 54.6652 268.51 55.0024C269.011 55.3351 269.262 55.825 269.262 56.4722C269.262 56.8413 269.15 57.1717 268.927 57.4634C268.703 57.7505 268.378 57.9601 267.949 58.0923C268.432 58.1834 268.82 58.3908 269.111 58.7144C269.408 59.0379 269.556 59.4139 269.556 59.8423C269.556 60.494 269.314 60.9998 268.831 61.3599C268.353 61.7153 267.674 61.8931 266.794 61.8931H263.636ZM264.449 58.4888V61.2095H266.821C267.437 61.2095 267.91 61.091 268.243 60.854C268.576 60.617 268.742 60.2752 268.742 59.8286C268.742 59.4185 268.576 59.0926 268.243 58.8511C267.91 58.6095 267.437 58.4888 266.821 58.4888H264.449ZM264.449 57.8052H266.521C267.806 57.7869 268.448 57.3494 268.448 56.4927C268.448 56.0415 268.271 55.7134 267.915 55.5083C267.564 55.2987 267.042 55.1938 266.35 55.1938H264.449V57.8052ZM276.05 61.8931C275.968 61.6606 275.915 61.3166 275.893 60.8608C275.605 61.2345 275.239 61.5239 274.792 61.729C274.35 61.9295 273.881 62.0298 273.384 62.0298C272.673 62.0298 272.096 61.8315 271.654 61.4351C271.217 61.0386 270.998 60.5373 270.998 59.9312C270.998 59.2111 271.297 58.6414 271.894 58.2222C272.495 57.8029 273.331 57.5933 274.402 57.5933H275.886V56.7524C275.886 56.2238 275.722 55.8091 275.394 55.5083C275.07 55.203 274.596 55.0503 273.972 55.0503C273.402 55.0503 272.93 55.1961 272.557 55.4878C272.183 55.7795 271.996 56.1304 271.996 56.5405L271.176 56.5337C271.176 55.9458 271.449 55.4377 271.996 55.0093C272.543 54.5763 273.215 54.3599 274.013 54.3599C274.838 54.3599 275.487 54.5672 275.961 54.9819C276.439 55.3921 276.686 55.9663 276.699 56.7046V60.2046C276.699 60.9201 276.774 61.4556 276.925 61.811V61.8931H276.05ZM273.479 61.3052C274.026 61.3052 274.514 61.173 274.942 60.9087C275.375 60.6444 275.69 60.2912 275.886 59.8491V58.2222H274.423C273.607 58.2313 272.969 58.3817 272.509 58.6733C272.049 58.9604 271.818 59.3569 271.818 59.8628C271.818 60.2775 271.971 60.6216 272.276 60.895C272.586 61.1685 272.987 61.3052 273.479 61.3052ZM284.28 54.4966V61.8931H283.46V58.9126H281.163L279.358 61.8931H278.456L280.315 58.8101C279.81 58.6779 279.415 58.4227 279.133 58.0444C278.855 57.6662 278.716 57.2196 278.716 56.7046C278.716 56.0347 278.955 55.4992 279.434 55.0981C279.917 54.6971 280.568 54.4966 281.389 54.4966H284.28ZM279.536 56.7183C279.536 57.1512 279.673 57.5067 279.946 57.7847C280.224 58.0627 280.609 58.2062 281.102 58.2153H283.46V55.1938H281.368C280.799 55.1938 280.35 55.3306 280.021 55.604C279.698 55.8774 279.536 56.2489 279.536 56.7183ZM222.62 77.8931V70.4966H225.334C226.273 70.4966 226.993 70.6652 227.494 71.0024C227.995 71.3351 228.246 71.825 228.246 72.4722C228.246 72.8413 228.134 73.1717 227.911 73.4634C227.688 73.7505 227.362 73.9601 226.934 74.0923C227.417 74.1834 227.804 74.3908 228.096 74.7144C228.392 75.0379 228.54 75.4139 228.54 75.8423C228.54 76.494 228.299 76.9998 227.815 77.3599C227.337 77.7153 226.658 77.8931 225.778 77.8931H222.62ZM223.434 74.4888V77.2095H225.806C226.421 77.2095 226.895 77.091 227.228 76.854C227.56 76.617 227.727 76.2752 227.727 75.8286C227.727 75.4185 227.56 75.0926 227.228 74.8511C226.895 74.6095 226.421 74.4888 225.806 74.4888H223.434ZM223.434 73.8052H225.505C226.79 73.7869 227.433 73.3494 227.433 72.4927C227.433 72.0415 227.255 71.7134 226.899 71.5083C226.549 71.2987 226.027 71.1938 225.334 71.1938H223.434V73.8052ZM233.229 78.0298C232.601 78.0298 232.031 77.8748 231.521 77.5649C231.015 77.255 230.62 76.8244 230.338 76.2729C230.055 75.717 229.914 75.0949 229.914 74.4067V74.1128C229.914 73.4019 230.051 72.7616 230.324 72.1919C230.602 71.6222 230.987 71.1756 231.479 70.8521C231.972 70.5239 232.505 70.3599 233.079 70.3599C233.977 70.3599 234.688 70.6675 235.212 71.2827C235.741 71.8934 236.005 72.7297 236.005 73.7915V74.2495H230.728V74.4067C230.728 75.2453 230.967 75.9448 231.445 76.5054C231.928 77.0614 232.535 77.3394 233.264 77.3394C233.701 77.3394 234.086 77.2596 234.419 77.1001C234.756 76.9406 235.062 76.6854 235.335 76.3345L235.848 76.7241C235.246 77.5946 234.373 78.0298 233.229 78.0298ZM233.079 71.0571C232.464 71.0571 231.944 71.2827 231.521 71.7339C231.101 72.1851 230.846 72.7912 230.755 73.5522H235.191V73.4634C235.169 72.7524 234.966 72.1737 234.583 71.7271C234.2 71.2804 233.699 71.0571 233.079 71.0571ZM243.545 74.27C243.545 75.423 243.29 76.339 242.779 77.0181C242.269 77.6925 241.585 78.0298 240.729 78.0298C239.717 78.0298 238.942 77.6743 238.404 76.9634V80.7368H237.591V70.4966H238.35L238.391 71.5425C238.924 70.7541 239.696 70.3599 240.708 70.3599C241.592 70.3599 242.285 70.6948 242.786 71.3647C243.292 72.0347 243.545 72.9644 243.545 74.1538V74.27ZM242.725 74.1265C242.725 73.1831 242.531 72.438 242.144 71.8911C241.756 71.3442 241.216 71.0708 240.523 71.0708C240.022 71.0708 239.591 71.1916 239.231 71.4331C238.871 71.6746 238.596 72.0256 238.404 72.4858V76.0337C238.6 76.4575 238.881 76.7811 239.245 77.0044C239.61 77.2277 240.04 77.3394 240.537 77.3394C241.225 77.3394 241.761 77.0659 242.144 76.519C242.531 75.9676 242.725 75.1701 242.725 74.1265ZM248.098 77.3394C248.667 77.3394 249.144 77.1799 249.526 76.8608C249.914 76.5373 250.123 76.1203 250.155 75.6099H250.941C250.919 76.061 250.777 76.4735 250.518 76.8472C250.258 77.2163 249.911 77.5057 249.479 77.7153C249.05 77.925 248.59 78.0298 248.098 78.0298C247.127 78.0298 246.357 77.6925 245.787 77.0181C245.222 76.3436 244.939 75.4367 244.939 74.2974V74.0513C244.939 73.3221 245.067 72.6772 245.322 72.1167C245.577 71.5562 245.942 71.1232 246.416 70.8179C246.895 70.5125 247.453 70.3599 248.091 70.3599C248.902 70.3599 249.57 70.6014 250.094 71.0845C250.622 71.5675 250.905 72.2033 250.941 72.9917H250.155C250.119 72.4129 249.909 71.9458 249.526 71.5903C249.148 71.2349 248.67 71.0571 248.091 71.0571C247.353 71.0571 246.778 71.3237 246.368 71.8569C245.963 72.3901 245.76 73.1375 245.76 74.0991V74.3384C245.76 75.2817 245.963 76.0177 246.368 76.5464C246.778 77.075 247.355 77.3394 248.098 77.3394ZM257.894 71.1938H255.2V77.8931H254.38V71.1938H251.789V70.4966H257.894V71.1938ZM261.25 74.5024H260.115V77.8931H259.288V70.4966H260.115V73.7778H261.236L263.95 70.4966H264.982L261.947 74.0854L265.317 77.8931H264.237L261.25 74.5024ZM271.169 77.8931C271.087 77.6606 271.035 77.3166 271.012 76.8608C270.725 77.2345 270.358 77.5239 269.911 77.729C269.469 77.9295 269 78.0298 268.503 78.0298C267.792 78.0298 267.215 77.8315 266.773 77.4351C266.336 77.0386 266.117 76.5373 266.117 75.9312C266.117 75.2111 266.416 74.6414 267.013 74.2222C267.614 73.8029 268.451 73.5933 269.521 73.5933H271.005V72.7524C271.005 72.2238 270.841 71.8091 270.513 71.5083C270.189 71.203 269.715 71.0503 269.091 71.0503C268.521 71.0503 268.049 71.1961 267.676 71.4878C267.302 71.7795 267.115 72.1304 267.115 72.5405L266.295 72.5337C266.295 71.9458 266.568 71.4377 267.115 71.0093C267.662 70.5763 268.334 70.3599 269.132 70.3599C269.957 70.3599 270.606 70.5672 271.08 70.9819C271.559 71.3921 271.805 71.9663 271.818 72.7046V76.2046C271.818 76.9201 271.894 77.4556 272.044 77.811V77.8931H271.169ZM268.599 77.3052C269.146 77.3052 269.633 77.173 270.062 76.9087C270.494 76.6444 270.809 76.2912 271.005 75.8491V74.2222H269.542C268.726 74.2313 268.088 74.3817 267.628 74.6733C267.168 74.9604 266.938 75.3569 266.938 75.8628C266.938 76.2775 267.09 76.6216 267.396 76.895C267.705 77.1685 268.106 77.3052 268.599 77.3052Z" fill="#405063"/>
<path d="M237.636 29.3022H236.891H231.354V31.8729H254.093V29.4757L250.331 29.3012H237.636V29.3022ZM240.961 30.8803H233.126V30.4001H240.961V30.8803Z" fill="#4992E6"/>
<path d="M220 39.7516H230.147V23.9681H220V39.7516ZM225.202 39.0704C224.879 39.0704 224.617 38.8271 224.617 38.5293C224.617 38.2284 224.88 37.987 225.202 37.987C225.525 37.987 225.787 38.2284 225.787 38.5293C225.788 38.8271 225.525 39.0704 225.202 39.0704ZM225.3 24.6214C225.435 24.6214 225.544 24.7208 225.544 24.8464C225.544 24.9718 225.434 25.0733 225.3 25.0733C225.165 25.0733 225.055 24.9709 225.055 24.8464C225.054 24.7208 225.164 24.6214 225.3 24.6214ZM223.84 25.3789H226.756V25.5962H223.84V25.3789ZM221.628 26.3722L228.518 26.3682V37.2111C225.883 37.2255 222.935 37.2351 221.628 37.2255V26.3722Z" fill="#4992E6"/>
<path d="M238.184 2.29097H266.015V10.8779H268.401V0.0849609H235.799V11.312H238.184V2.29097Z" fill="#4992E6"/>
<path d="M251.775 21.671H256.192V20.6443H254.821V19.4014H256.192V16.5571H251.775V21.671Z" fill="#4992E6"/>
<path d="M257.445 11.8848V32.0455H271.976V11.8848H257.445ZM265.018 31.0332C264.631 31.0332 264.318 30.7419 264.318 30.3854C264.318 30.0274 264.631 29.7379 265.018 29.7379C265.406 29.7379 265.718 30.0272 265.718 30.3854C265.718 30.7419 265.406 31.0332 265.018 31.0332ZM269.876 28.7017H259.546V13.8267H269.878L269.876 28.7017Z" fill="#4992E6"/>
<path d="M226.155 14.4326H248.376V26.7497H231.354V28.5618H250.335V12.6221H224.197V22.9049H226.155V14.4326Z" fill="#4992E6"/>
</svg>
